<svg id="Layer_1" data-name="Layer 1" xmlns="http://www.w3.org/2000/svg" xmlns:xlink="http://www.w3.org/1999/xlink" viewBox="0 0 244.04 97.01"><defs><style>.cls-1{fill:none;}.cls-2,.cls-5{fill:#ae1f23;}.cls-3{fill:#680d0d;}.cls-4{fill:url(#linear-gradient);}.cls-5{font-size:47.64px;font-family:AutomatonCapsSSi, Automaton Caps SSi;}</style><linearGradient id="linear-gradient" x1="-372.97" y1="1258.37" x2="-367.18" y2="1258.37" gradientTransform="matrix(0.31, -1.68, 1.54, 0.28, -1788.93, -902.96)" gradientUnits="userSpaceOnUse"><stop offset="0" stop-color="#fff"/><stop offset="1"/></linearGradient></defs><path class="cls-1" d="M33.69,71.91a31.42,31.42,0,0,1-5.75-3.21,1.17,1.17,0,0,0,0-.27,1.86,1.86,0,0,0-.08-.26l2-2.71c.25.14.45.31.67.45l.67.45.68.42.69.41c.23.14.47.27.7.39l.69.37.72.35.69.31.06-.2h0c-.53-.24-1.12-.52-1.6-.77A31.61,31.61,0,0,1,30,65.27l1.92-2.62a.64.64,0,0,0,.6-.1.58.58,0,0,1,.23.13,25.55,25.55,0,0,0,3.76,2l.06-.21a26,26,0,0,1-3.89-2.1c0-.09,0-.16,0-.24a.52.52,0,0,0-.34-.47.49.49,0,0,0-.57.1.5.5,0,0,0-.14.55,1.11,1.11,0,0,0,.09.19c-.09.17-1.67,2.33-1.91,2.61-.08,0-.12,0-.18-.09a31.29,31.29,0,0,1-5.19-4.92l-.16-.2a1.23,1.23,0,0,0,.34-.62,1,1,0,0,0-.1-.67c.16-.16,2.19-1.63,2.4-1.74l.49.63c.16.2.33.4.5.59s.35.41.53.6.35.38.53.57a1.09,1.09,0,0,0,0,.17.51.51,0,0,0,.21.57.54.54,0,0,0,.82-.61l-.07-.16a4.86,4.86,0,0,1,.38-.41l.38-.38L31,58l.39-.4.19.17a21.08,21.08,0,0,0,5.1,3.62l.63.31.06-.21a20.69,20.69,0,0,1-3.91-2.39,13.67,13.67,0,0,1-1.88-1.67c.15-.18,1.31-1.35,1.47-1.47l.19.09a.71.71,0,1,0,0-1.34l-.21.07a18.22,18.22,0,0,1-3-4.49,16.92,16.92,0,0,1-1.4-4.4.54.54,0,0,0-.17-1c0-.1,0-.21,0-.31,0-.29-.05-.58-.07-.87a15.66,15.66,0,0,1,0-2.47,16.71,16.71,0,0,1,.37-2.44A18,18,0,0,1,30,35.32l.09-.15a.53.53,0,0,0,.47-.9,17.79,17.79,0,0,1,3.66-4.66,17.36,17.36,0,0,1,3.52-2.46l.15.08a.43.43,0,0,0,.56-.25.41.41,0,0,0-.28-.54l-.22,0q-1-2.1-2.12-4.2L36,22a.76.76,0,0,0,.14-.67.75.75,0,0,0-.86-.56.76.76,0,0,0-.64.77c0,.07,0,.15,0,.24l-.62.35-.63.37-.6.38c-.2.13-.39.28-.61.4L32,23.11,29.06,19l-1.33-1.83c-.05-.07-.11-.13-.09-.23s0-.1-.11-.11a31.12,31.12,0,0,0-3.68,3.05,31.8,31.8,0,0,0-7.78,12,1,1,0,0,0-1.19.7,1,1,0,0,0,.49,1.23,33.58,33.58,0,0,0,.11,18L15.3,52a.79.79,0,0,0-.18,1,.83.83,0,0,0,.91.4.8.8,0,0,0,.61-.74c0-.08,0-.16,0-.24l6.67-2.08h.09a1.8,1.8,0,0,1,.08.21,24.15,24.15,0,0,0,1.44,3.25,26.19,26.19,0,0,0,1.7,2.71c0,.06.11.11.11.2l-.05.05-2.23,1.6a.19.19,0,0,1-.1,0l-.17-.14a1.05,1.05,0,0,0-1.2,0,1,1,0,0,0-.38,1.13,1,1,0,0,0,1.25.69l.22-.06.15.17a29,29,0,0,0,2.52,2.68,31.86,31.86,0,0,0,2.74,2.31.3.3,0,0,1,.15.16l-2,2.7-.15,0a.44.44,0,0,0-.31.09.47.47,0,0,0-.15.59.48.48,0,0,0,.56.24l.18-.08a32.93,32.93,0,0,0,6.31,3.44l.07-.2Zm-4-12.84a2.7,2.7,0,0,0-.28,0,1.32,1.32,0,0,0-.3.06.32.32,0,0,1-.07-.06,23.64,23.64,0,0,1-1.91-2.21l-.06-.11.08,0,2.07-1.5h.06c.34.43.68.85,1,1.27.14.17.3.34.45.5l.46.48v0a.13.13,0,0,0,0,0Zm.1-23.86a18.41,18.41,0,0,0-1.28,4.1,17.89,17.89,0,0,0-.26,1.93,18.23,18.23,0,0,0,0,2.56c0,.28.05.55.07.82,0,.1,0,.2,0,.33a.59.59,0,0,0-.37.53c-.23.07-5,.85-5.27.86a8.57,8.57,0,0,1-.23-1.69,7,7,0,0,1,0-1.75,3.81,3.81,0,0,1,.48,0h2.47a2.58,2.58,0,0,0,0-.48c0-.15,0-.31,0-.47l0-.44c0-.16,0-.31,0-.47s0-.31,0-.47l.06-.47.06-.46c0-.15.05-.3.08-.44s.05-.31.08-.46.06-.31.1-.46.07-.31.1-.46l.12-.46c0-.15.08-.3.13-.45s.08-.29.13-.43.09-.3.14-.44l.16-.45c0-.15.11-.29.17-.44s.11-.29.17-.44l.18-.41c.06-.14.12-.28.19-.42s.14-.28.2-.42c.19.06,1.87.89,2.12,1a.64.64,0,0,0,.16.56C29.84,35.11,29.83,35.16,29.81,35.21Zm-1-4.39a23.88,23.88,0,0,0-1.35,2.3l-.11,0-1.63-.81-.07,0a1.2,1.2,0,0,0,0-.5,1,1,0,0,0-.28-.42,5.94,5.94,0,0,1,.67-1.22c.25-.39.5-.77.77-1.14.18.08,1.74,1.18,1.93,1.35A.66.66,0,0,0,28.85,30.82Zm-2.22-2c-.51.75-1,1.51-1.45,2.32H25a.85.85,0,0,0-.93.45.86.86,0,0,0,.18,1l.12.1c-.29.69-.56,1.36-.83,2-.39,0-.39,0-.71.33l-.17,0-2.27-.74c-.18-.06-.36-.15-.55-.23,0-.07,0-.12.06-.18a1.32,1.32,0,0,0,.12-.43.43.43,0,0,1,.06-.18,28.15,28.15,0,0,1,2.82-5.62l.13-.18a1.21,1.21,0,0,0,1.37-.24c.16.08,2,1.39,2.22,1.56v0ZM19.89,34.4c.89.21,1.74.54,2.61.81l.26.09a.84.84,0,0,0,.4.74,24.12,24.12,0,0,0-.72,3.27,26.71,26.71,0,0,0-.28,3.35c-.22,0-2.93,0-3.17,0a3.35,3.35,0,0,0-.2-.37.63.63,0,0,0-.36-.22c0-.07,0-.13,0-.19,0-.66.07-1.31.14-2A24.91,24.91,0,0,1,19,37.35c.17-.85.38-1.69.63-2.51a4.43,4.43,0,0,1,.17-.47Zm3.5,1.68a.67.67,0,0,0,.68-.47.67.67,0,0,0-.28-.76,14.29,14.29,0,0,1,.81-2c.6,0,.64,0,1-.37.18.06,1.53.73,1.78.88a.34.34,0,0,1-.08.21,23.58,23.58,0,0,0-1.22,3.15,21.85,21.85,0,0,0-.69,3.19,23.38,23.38,0,0,0-.21,2.51,1.48,1.48,0,0,1,0,.21s0,0,0,.06c-.22,0-2.53,0-2.72,0A21.86,21.86,0,0,1,23.39,36.08ZM34.48,22.15l.25-.13c.4.3.45.32.87.28h0s0,0,0,0l2,4.05a.89.89,0,0,0,.05.1c-.06.17-.11.3-.16.48a18,18,0,0,0-7.23,7.2,1.1,1.1,0,0,0-.26,0,1.72,1.72,0,0,0-.26.1,2.93,2.93,0,0,1-.51-.24l-.55-.27-.53-.26-.55-.28A21,21,0,0,1,29,31l.19,0a.49.49,0,0,0,.5-.29.5.5,0,0,0-.1-.57A.5.5,0,0,0,29,30l-.12.06h0s0,0,0,0l-1.8-1.26L27,28.75a1,1,0,0,1,.14-.21,23.22,23.22,0,0,1,7.35-6.39ZM16.36,31.78a30.78,30.78,0,0,1,2.57-5.33,31.7,31.7,0,0,1,8.28-9.1l.23-.17L32,23.45c-.2.18-.4.31-.59.46l-.57.45-.56.48-.55.49-.54.52-.51.52-.49.54-.48.56-.46.57-.44.57c-.27-.15-2.1-1.45-2.23-1.58l.07-.22a1.09,1.09,0,1,0-2,.29l.19.23-.11.19a27.73,27.73,0,0,0-2.89,5.76c-.05.14-.11.29-.16.44a.81.81,0,0,1-.15.27c-.22-.06-.44-.11-.64-.18l-1.8-.58-.23-.08A1.07,1.07,0,0,0,16.31,32,.31.31,0,0,1,16.36,31.78Zm-.78,1.14v0a.31.31,0,0,1,.08-.15l.08-.05h.13a.28.28,0,0,1,.13,0l.06,0,0,0,0,0a.33.33,0,0,1,0,.15h0v0h0a.28.28,0,0,1-.29.24.25.25,0,0,1-.2-.09A.27.27,0,0,1,15.58,32.92Zm.24,19.87a.2.2,0,0,1-.18-.18.21.21,0,0,1,.19-.2.19.19,0,0,1,.19.2A.18.18,0,0,1,15.82,52.79Zm7.51-2.73h0l-6.72,2.11a1.46,1.46,0,0,0-.37-.33,1.13,1.13,0,0,0-.49-.09.87.87,0,0,1-.07-.17q-.44-1.57-.72-3.18c-.13-.72-.23-1.44-.31-2.17s-.13-1.39-.16-2.08,0-1.43,0-2.14c0-.9.07-1.8.16-2.7a32.78,32.78,0,0,1,.92-5.11.75.75,0,0,1,.09-.29,3.62,3.62,0,0,0,.47,0,.81.81,0,0,0,.45-.2c.11-.11.21-.23.32-.35a26.34,26.34,0,0,1,2.63.9l0,.13a.58.58,0,0,0-.05.29.29.29,0,0,1,0,.16,27.43,27.43,0,0,0-.7,3c-.1.58-.18,1.16-.26,1.74A23.79,23.79,0,0,0,18.2,42a.44.44,0,0,1,0,.1l-.17.07a.64.64,0,0,0-.35.73.66.66,0,0,0,1.18.23c0-.06.07-.13.1-.18l0,0h3.12l.06,0a.43.43,0,0,1,0,.12c0,.41,0,.82,0,1.22a20.18,20.18,0,0,0,.22,2,22.71,22.71,0,0,0,.77,3.36l.12.38ZM25,53.36a22.85,22.85,0,0,1-1.25-2.87,22.59,22.59,0,0,1-1-3.63.83.83,0,0,1,0-.27c.22-.07,4.47-.76,5.31-.87a.75.75,0,0,0,.47.27,18.41,18.41,0,0,0,1.61,4.81A18.89,18.89,0,0,0,33,55a.81.81,0,0,0,0,.84,5.75,5.75,0,0,1-.49.5c-.15.17-.32.33-.48.49l-.5.5a.67.67,0,0,1-.2-.17,22,22,0,0,1-1.78-2.08.79.79,0,0,0-.12-.15l-.05,0a4.42,4.42,0,0,0-.57.39l-.6.43-.57.41-.57.41c-.1,0-.13-.1-.17-.16A23.82,23.82,0,0,1,25,53.36Z"/><path class="cls-1" d="M38.81,73.6a30.56,30.56,0,0,1-4.64-1.49l-.07.2a31.5,31.5,0,0,0,4.65,1.5Z"/><path class="cls-1" d="M52.13,62.91l.15,0a.66.66,0,0,0,.48.22c.66,2,1.31,4,2,6a.28.28,0,0,1,0,.09,27.3,27.3,0,0,1-3.68.86l-1.12.16,0,.22c.5-.06,1-.13,1.5-.22a31.22,31.22,0,0,0,3.47-.81l.07,0c.09,0,.11-.09.08-.17a2,2,0,0,1-.09-.22c-.63-2-1.27-3.89-1.9-5.84,0-.06,0-.12-.05-.17a.88.88,0,0,0,.12-.17.46.46,0,0,0-.2-.62.45.45,0,0,0-.61.23,1,1,0,0,0-.07.21l-.61.17c0,.07,0,.15-.05.23Z"/><path class="cls-1" d="M41.61,63a1.17,1.17,0,0,1,0,.2L41,63.05c0-.06,0-.13.07-.2Z"/><path class="cls-1" d="M72.1,61.64a31.36,31.36,0,0,0,4.25-8h.29A1.08,1.08,0,0,0,77,51.59a1.09,1.09,0,0,0-1.25.37l-.12.16c-.25,0-2.48-.76-2.65-.85,0-.07,0-.13.05-.2.1-.35.21-.69.31-1A26.34,26.34,0,0,0,74,46.74c.1-.62.17-1.26.21-1.89,0-.42,0-.85.08-1.27a1,1,0,0,1,0-.16l.12,0a.66.66,0,0,0,0-1.24l-.13,0c0-.67-.08-1.34-.14-2s-.16-1.31-.27-2-.25-1.31-.41-2-.35-1.29-.53-1.94l.1-.05,2.54-.82.14.21a1.08,1.08,0,0,0,1.94-.66,1.08,1.08,0,0,0-1.08-1.05h-.26a31.19,31.19,0,0,0-10.92-14.7.49.49,0,0,0-.2-.49.51.51,0,0,0-.53,0,32,32,0,0,0-18-5.87l-.09-.16a.49.49,0,0,0-.52-.2.47.47,0,0,0-.36.37.46.46,0,0,0,.2.49l.16.1s0,.05,0,.07v3.2a.6.6,0,0,1,0,.12h-.22c-.71,0-1.42.08-2.12.16s-1.53.22-2.29.36c-1.3.24-2.58.53-3.85.87a.67.67,0,0,0-.12.06.93.93,0,0,0,.07.33l1.86,5.7a1.87,1.87,0,0,1,.07.22,1.34,1.34,0,0,0-.11.14.42.42,0,1,0,.74.38l.06-.16A20.38,20.38,0,0,1,45.83,22a19.09,19.09,0,0,1,3.54.29l0,.23c-.1.58-.21,1.16-.31,1.74l-.12.74c0,.13,0,.16.13.18l1,.18a15.77,15.77,0,0,1,3.74,1.23,18.24,18.24,0,0,1,5,3.52c0,.06.09.13.18.15a.42.42,0,0,0,.18-.14L60,29.3l2.49-2.46c.06-.06.1-.13.19-.16a1,1,0,0,0,1.1,0,16.39,16.39,0,0,1,1.71,2.08c-.24.2-1.84,1.34-2,1.41s-.17-.06-.25-.07a.45.45,0,1,0-.06.9h.19l.15.19a17.41,17.41,0,0,1,1.13,1.79,18.4,18.4,0,0,1,2,5.53.44.44,0,0,1,0,.23l-.06,0a.78.78,0,0,0-.47.66.65.65,0,0,1,0,.13l-1.69.28s-.08-.1-.13-.13a.41.41,0,0,0-.59.07.41.41,0,0,0,.12.58l.16.08a2.07,2.07,0,0,1,0,.22,17.65,17.65,0,0,1-1.5,9.57l-.09.16a.56.56,0,0,0-.51.93,17.72,17.72,0,0,1-3.08,4.13,17.52,17.52,0,0,1-3.85,2.91l-.17-.12a.66.66,0,0,0-.75,0,.66.66,0,0,0-.22.74.64.64,0,0,0,.61.43h.23l1.9,3.74-.16.15a1,1,0,0,0-.14,1.29A1,1,0,0,0,57.5,65a1,1,0,0,0,.61-1.15l0-.19a25.3,25.3,0,0,0,2.16-1.36h0c.12.12,4,5.33,4.14,5.58l-.14.19a.81.81,0,0,0,0,.93.78.78,0,0,0,.85.31.83.83,0,0,0,.63-1l-.06-.2A31.21,31.21,0,0,0,72.1,61.64Zm4.52-9.34a.3.3,0,1,1-.29.28A.3.3,0,0,1,76.62,52.3ZM73.8,46.89a25.28,25.28,0,0,1-1.06,4.32l-3.57-1.14a.9.9,0,0,1,0-.19,25.67,25.67,0,0,0,.66-2.58c.13-.68.24-1.37.31-2.06,0-.44.07-.88.1-1.32,0-.06,0-.12,0-.2a1.17,1.17,0,0,0,.6-.29,1.3,1.3,0,0,0,.31-.56c.24,0,2.14,0,2.32,0a.77.77,0,0,0,.55.54A21.32,21.32,0,0,1,73.8,46.89ZM63.59,54.68a17.72,17.72,0,0,1,1-1.61,1.07,1.07,0,0,0,.59,0,1.12,1.12,0,0,0,.51-.35c.42.2.83.42,1.24.63a1.71,1.71,0,0,0,0,.4,1.8,1.8,0,0,0,.17.34,16,16,0,0,1-1.5,2.46L63.7,55.18C63.7,54.87,63.7,54.87,63.59,54.68Zm6.43-13-.4.19a.73.73,0,0,0-.31.34,4.49,4.49,0,0,0-.17.44,3.7,3.7,0,0,1-.58,0H67.3a22.59,22.59,0,0,0-.17-2.36c.11-.08.22-.13.3-.2a1.21,1.21,0,0,0,.2-.26,3.58,3.58,0,0,0,.11-.35l1.59-.27a1.59,1.59,0,0,0,.24.27.9.9,0,0,0,.26.13A7.64,7.64,0,0,1,70,41.67Zm.18.45a.55.55,0,0,1,.55.58.56.56,0,0,1-.57.56.56.56,0,0,1-.54-.57A.56.56,0,0,1,70.2,42.12Zm-2.91.77a2.71,2.71,0,0,1,.49,0h1.4a1.05,1.05,0,0,0,.87.83.41.41,0,0,1,0,.24c0,.46-.07.92-.12,1.38-.06.65-.17,1.29-.29,1.93a23.91,23.91,0,0,1-1.82,5.51l-.06.12,0,0a.77.77,0,0,0-.73.25c-.43-.2-.84-.42-1.27-.64a.92.92,0,0,0-.35-1,23.83,23.83,0,0,0,1-2.77,20.74,20.74,0,0,0,.64-2.89A19.5,19.5,0,0,0,67.29,42.89Zm0,11.34h.17a.68.68,0,0,0,.68-.32.65.65,0,0,0-.06-.75L68,53a25.52,25.52,0,0,0,1.12-2.75l.14,0,3.31,1.06.14.06a18,18,0,0,1-1,2.55A27.85,27.85,0,0,1,69,58.65h-.26c-.07,0-.15.05-.24.07l-2.72-2A25.81,25.81,0,0,0,67.29,54.23Zm9.33-21.58a.29.29,0,0,1,.3.29.3.3,0,1,1-.59,0A.29.29,0,0,1,76.62,32.65ZM46.34,13.3V11.41a.58.58,0,0,0,.37-.36h.19c.76,0,1.51.06,2.27.13a31.52,31.52,0,0,1,15.22,5.57l.14.1,0,0a.61.61,0,0,0,.06.42v.06c-1.29,1.78-2.59,3.54-3.88,5.31a.76.76,0,0,1-.08.11.78.78,0,0,0-.84.13.77.77,0,0,1-.25-.14A23.58,23.58,0,0,0,55,20.41L53.93,20l-.18-.07.82-2.54h.15a1.07,1.07,0,0,0,1.18-.92A1.07,1.07,0,0,0,54,15.7l-.12.17-.15,0A25.47,25.47,0,0,0,51,15.23Q50,15.06,49.09,15c-.85-.08-1.7-.13-2.55-.14h-.16a.34.34,0,0,1,0-.24Zm8.2,3a.3.3,0,1,1,.28.31A.29.29,0,0,1,54.54,16.31Zm-8.2-1.1a.77.77,0,0,1,0-.15,15.09,15.09,0,0,1,2.2.07,27.3,27.3,0,0,1,5.21,1,1.27,1.27,0,0,0,.1.72,1.23,1.23,0,0,0,.51.5c-.28.86-.56,1.71-.83,2.56a.57.57,0,0,1-.15,0,26.83,26.83,0,0,0-2.68-.65l-.18,0a.52.52,0,0,0-.06-.16.47.47,0,0,0-.81-.13.64.64,0,0,0-.1.13l-2.3-.19a.46.46,0,0,1-.05-.1,1,1,0,0,0-.77-.77l-.07,0h0C46.33,17.69,46.31,16.2,46.34,15.21Zm7.11,4.88a.68.68,0,0,1,0,.14l-.78,2.41a.71.71,0,0,1-.07.16,23.27,23.27,0,0,0-2.91-.71s0,0,0,0c.13-.79.27-1.59.41-2.39a.62.62,0,0,0,.43-.28,1.29,1.29,0,0,1,.4.05,22.48,22.48,0,0,1,2.45.61Zm-5.6,1.79c-.52-.05-1-.08-1.56-.08a13.54,13.54,0,0,0-1.56,0c-.52.05-1,.09-1.55.16s-1,.17-1.54.28-1,.24-1.5.36l-.44-.23c-.65-2-1.3-4-2-6,0-.07.13-.07.19-.09.87-.23,1.74-.44,2.62-.61s1.55-.29,2.33-.41a25,25,0,0,1,3-.29H46l.08,0v2.83l-.24.07a1,1,0,0,0-.67,1,1,1,0,0,0,.72.95,1,1,0,0,0,1.27-.66,1.45,1.45,0,0,0,.06-.19c.76,0,1.51.09,2.27.18a.61.61,0,0,0,.28.38,1.1,1.1,0,0,1,0,.41c-.11.65-.22,1.3-.34,1.95a.23.23,0,0,1,0,.09Zm14.59,4.6v.06L59,29.94s0,0-.07,0a18.51,18.51,0,0,0-4.47-3.29,17,17,0,0,0-5.3-1.7c0-.24.39-2.45.46-2.68h.09a17.14,17.14,0,0,1,2.55.59,1.19,1.19,0,0,1,.35.15.1.1,0,0,0,.15-.05.75.75,0,0,0,0-.16c.27-.82.54-1.64.8-2.46l.08-.21a6.68,6.68,0,0,1,1.44.48,23.29,23.29,0,0,1,4.54,2.42.77.77,0,0,1,0,.15.72.72,0,0,0,1,.82l.17-.11.1.05c.52.42,1,.86,1.51,1.32,0,0,0,.05.07.08A.88.88,0,0,0,62.44,26.48Zm1.44,0a1,1,0,0,0,.07-.15.83.83,0,0,0-.19-.93.85.85,0,0,0-.92-.2l-.14.05L61,23.75a.79.79,0,0,0-.13-.82c.09-.17,3.81-5.26,4-5.46a.58.58,0,0,0,.46-.1,24.24,24.24,0,0,1,2.62,2.13,30.63,30.63,0,0,1,5.8,7.18A31.34,31.34,0,0,1,76.14,32a1.33,1.33,0,0,0-.48.49,1.28,1.28,0,0,0-.1.7L73,34a.57.57,0,0,1-.15,0l-.1-.27a28.33,28.33,0,0,0-3.09-6.3l-.71-1a.76.76,0,0,0-.11-.14c0-.05-.15,0-.16,0s-.12.18-.2.24l-2.67,1.92-.22.15A25.88,25.88,0,0,0,63.88,26.46Zm8.8,7.63-3,1a1.7,1.7,0,0,0-.31-.25,2.2,2.2,0,0,0-.41-.12c-.13-.32-.27-.67-.42-1s-.3-.69-.46-1-.33-.68-.51-1-.35-.65-.54-1-.39-.64-.59-1l-.64-.94.1-.1,2.85-2.05.09-.05c.09,0,.12.12.17.19a26.7,26.7,0,0,1,1.62,2.59,28.58,28.58,0,0,1,2,4.49Zm-6.31,2.48a19.08,19.08,0,0,0-.73-2,18.86,18.86,0,0,0-1-1.91,19.35,19.35,0,0,0-1.18-1.81.56.56,0,0,0,.08-.45c.15-.14,1.53-1.15,2-1.43.09,0,.12.1.16.16a25.14,25.14,0,0,1,1.85,3.06,24.56,24.56,0,0,1,1.07,2.41l.09.25c-.31.3-.39.57-.25.85a.62.62,0,0,0,.69.35c.31,0,.48-.27.54-.7.16-.08,2.81-1,3-1a1.15,1.15,0,0,1,.06.17,28.91,28.91,0,0,1,.88,3.56q.19,1.14.3,2.28c.05.53.07,1.05.11,1.58v.17c-.36.18-.42.23-.54.55a3.75,3.75,0,0,1-.58,0H71.24a1.24,1.24,0,0,0-.32-.66,1.18,1.18,0,0,0-.66-.3c0-.36,0-.72-.06-1.06s-.08-.69-.13-1c.06,0,.12-.09.18-.15a.49.49,0,0,0,.11-.54.47.47,0,0,0-.42-.33.5.5,0,0,0-.51.23l-.1.2-1.61.27-.2-.31a.73.73,0,0,0-.3-.22l-.36-.09A18.83,18.83,0,0,0,66.37,36.57Zm-2.22,3.82.16-.18A.84.84,0,0,0,64.4,40l1.7-.27a1,1,0,0,0,.79.56.49.49,0,0,1,0,.24c0,.36.08.72.1,1.08a19.5,19.5,0,0,1,0,2.86,20.13,20.13,0,0,1-1.71,6.69c0,.07-.07.14-.11.24a.93.93,0,0,0-1,.32c-.26-.11-.49-.24-.72-.36l-.7-.35a.66.66,0,0,0-.19-.58A17.89,17.89,0,0,0,64.15,40.39ZM60.26,62l-.06,0c-.07.14-.22.2-.34.29-.54.38-1.1.72-1.68,1l-.21.11a1.1,1.1,0,0,0-1.21-.4l0,0a0,0,0,0,1,0,0,1.09,1.09,0,0,1-.08-.15l-1.79-3.52a.11.11,0,0,1,0-.06.71.71,0,0,0,.21-.73c.37-.22.73-.44,1.08-.68s.7-.48,1-.74.65-.52,1-.79.63-.58.93-.88.58-.62.86-.94.54-.66.79-1,.48-.68.7-1,.44-.72.67-1.09a.6.6,0,0,0,.57-.16,12.54,12.54,0,0,1,1.42.71,1,1,0,0,0,.27,1,18,18,0,0,1-.95,1.6h-.15a.39.39,0,0,0-.38.27.4.4,0,0,0,.09.48.41.41,0,0,0,.45.11l.15,0c.16.08,1.7,1.21,1.9,1.39,0,.08,0,.13-.09.18a22.21,22.21,0,0,1-4.79,4.85A.56.56,0,0,1,60.26,62Zm5.36,6a1.58,1.58,0,0,0-.47-.23,1.4,1.4,0,0,0-.5,0H64.6l-4-5.44-.06-.09,0-.06.72-.56c.24-.19.48-.38.71-.58l.69-.62c.22-.2.44-.42.66-.64s.43-.43.63-.66l.61-.69c.2-.24.39-.47.58-.72l.55-.72h.06l2.6,1.91.07.06a1.61,1.61,0,0,0,0,.22.42.42,0,0,0,.27.38.43.43,0,0,0,.47-.08.41.41,0,0,0,.13-.44.89.89,0,0,0-.07-.19l.66-1c.21-.33.42-.66.62-1s.39-.68.58-1,.36-.68.53-1,.34-.71.49-1.07.31-.72.45-1.09.27-.73.4-1.09c.18,0,2.36.71,2.66.83v.11a1.08,1.08,0,0,0,.49,1l.08.05a18.41,18.41,0,0,1-1,2.53,31,31,0,0,1-9.5,11.81Z"/><path class="cls-1" d="M40.85,65.89l-.06.2L40,65.9a1.59,1.59,0,0,0,.07-.2Z"/><path class="cls-1" d="M39.83,69.75l-.06.21L38.7,69.7c0-.07,0-.13.07-.2Z"/><path class="cls-2" d="M80.11,42.92A34.16,34.16,0,1,0,33.37,74.5c.23-.69.48-1.45.73-2.19a32.93,32.93,0,0,1-6.31-3.44l-.18.08a.48.48,0,0,1-.56-.24.47.47,0,0,1,.15-.59.44.44,0,0,1,.31-.09,1,1,0,0,1,.15,0l2-2.71a.3.3,0,0,0-.15-.16,31.86,31.86,0,0,1-2.74-2.31,29,29,0,0,1-2.52-2.68L24.09,60l-.22.06a1,1,0,0,1-1.25-.69A1,1,0,0,1,23,58.27a1.05,1.05,0,0,1,1.2,0l.17.14a.19.19,0,0,0,.1,0l2.23-1.6.05-.05c0-.09-.07-.14-.11-.2a26.19,26.19,0,0,1-1.7-2.71,24.15,24.15,0,0,1-1.44-3.25l-.08-.21h-.09L16.66,52.4c-.05.08,0,.16,0,.24a.8.8,0,0,1-.61.74.83.83,0,0,1-.91-.4.79.79,0,0,1,.18-1l.18-.14a33.58,33.58,0,0,1-.11-18,1,1,0,0,1-.49-1.23,1,1,0,0,1,1.19-.7,31.8,31.8,0,0,1,7.78-12,31.12,31.12,0,0,1,3.68-3.05c.07,0,.12.06.11.11s0,.16.09.23L29.06,19,32,23.11l.17.21c.22-.12.41-.27.61-.4l.6-.38.63-.37.62-.35c0-.09,0-.17,0-.24a.76.76,0,0,1,.64-.77.75.75,0,0,1,.86.56A.76.76,0,0,1,36,22l-.15.16q1.07,2.1,2.12,4.2l.22,0a.41.41,0,0,1,.28.54.43.43,0,0,1-.56.25l-.15-.08a17.36,17.36,0,0,0-3.52,2.46,17.79,17.79,0,0,0-3.66,4.66.53.53,0,0,1-.47.9l-.09.15a18,18,0,0,0-1.14,3.51,16.71,16.71,0,0,0-.37,2.44,15.66,15.66,0,0,0,0,2.47c0,.29,0,.58.07.87,0,.1,0,.21,0,.31a.54.54,0,0,1,.17,1,16.92,16.92,0,0,0,1.4,4.4,18.22,18.22,0,0,0,3,4.49l.21-.07a.71.71,0,1,1,0,1.34L33.09,56c-.16.12-1.32,1.29-1.47,1.47a13.67,13.67,0,0,0,1.88,1.67,20.69,20.69,0,0,0,3.91,2.39c1.07-3.64,2.18-7.38,3.11-10.74a3.58,3.58,0,0,0-.48-3c-1.19-2-2.28-4-3.4-5.93A4.73,4.73,0,0,1,36,38.5c.11-.6.12-1.22.2-1.82.21-1.55.41-3.11.65-4.65a1.55,1.55,0,0,1,1.49-1.45c2.36-.14,4.71-.27,7.07-.35a1.18,1.18,0,0,1,1.26,1.11,2.71,2.71,0,0,1-.08,1.1,5.45,5.45,0,0,1-5.45,3.36c-.22,0-.45-.08-.67-.13a1.37,1.37,0,0,0,.52.47c.34.18.18.4.07.6a4.7,4.7,0,0,1-.37.54l.06,0,.71-.56c.44.46.81.92,1.24,1.32,1.15,1.07,2.36,2.07,3.47,3.18A4.45,4.45,0,0,1,47,47.05c-.07.11-.12.24-.18.36A4.72,4.72,0,0,0,48,42.73a8.48,8.48,0,0,0,4.15.16.66.66,0,0,1,.51.26c.33.43.6.91.9,1.37l.1-.05L53,42.78a.52.52,0,0,1,.19,0,2.79,2.79,0,0,1,.4.07A2,2,0,0,0,56.15,42a1.06,1.06,0,0,1,1.37-.49s0,0,.08,0l-.23-.11c-.46-.16-.47-.41-.19-.75s.58-.76.87-1.14l.8-1A.86.86,0,0,1,59,39,3.22,3.22,0,0,0,59.26,41a1.27,1.27,0,0,1,.18.58,2,2,0,0,1-.2.79,9,9,0,0,0-.74,1.36,32.32,32.32,0,0,1-4.17,8.78A4.83,4.83,0,0,0,53.59,54q-1,4.24-1.91,8.52l-.08.36.61-.17a1,1,0,0,1,.07-.21.45.45,0,0,1,.61-.23.46.46,0,0,1,.2.62A.88.88,0,0,1,53,63c0,.05,0,.11.05.17.63,1.95,1.27,3.89,1.9,5.84a2,2,0,0,0,.09.22c0,.08,0,.13-.08.17l-.07,0a31.22,31.22,0,0,1-3.47.81c-.5.09-1,.16-1.5.22-.56,2.49-1.11,4.92-1.42,6.33A34.05,34.05,0,0,0,80.11,42.92Zm-34.24-13a4.78,4.78,0,0,0-1.27-.1h0a6.34,6.34,0,0,1-.76,0,.21.21,0,0,0-.11,0c-.44.05-.87.07-1.33.13l-.18,0h0a3.46,3.46,0,0,1-.56,0h0a3.31,3.31,0,0,1-.44,0h0L41,30l.06-.05.17-.18h0c.23-.23.44-.45.67-.66l.11-.09.15-.12,0,0,.1-.08.08-.07h0l.06-.07a2.51,2.51,0,0,1,3.13-.49,2.13,2.13,0,0,1,1.3,2.18c0,.1,0,.21,0,.32h0s-.06,0-.07,0h0A1.81,1.81,0,0,0,45.87,29.91Zm-1.38,7.14a.89.89,0,0,1-.25.29.54.54,0,0,1-.18.11.78.78,0,0,1-.21,0,1.17,1.17,0,0,1-.32,0l-.14,0-.27-.08a2.43,2.43,0,0,1-1.39-1.16,4.6,4.6,0,0,0,.84-.08,5.34,5.34,0,0,0,1.07-.34l.46-.23c.12-.07.24-.14.35-.22l.09-.06.12-.09a7.11,7.11,0,0,0,.85-.71l.1.08,0,.08v.11a.49.49,0,0,1,0,.11l0,.1-1,2S44.5,37,44.49,37.05ZM48,39.17a1.4,1.4,0,0,1-1.22.37,3.11,3.11,0,0,1-.87-.24l-.22-.11a2.47,2.47,0,0,1-.68-.58,1.34,1.34,0,0,1-.22-1.56c.45-.94.91-1.87,1.33-2.82.19-.43.38-.87.56-1.3a23.22,23.22,0,0,0,.58-2.36,1.28,1.28,0,0,1,.07-.21.82.82,0,0,1,.29-.38,2.68,2.68,0,0,1,3.27.57,2,2,0,0,1,.17.19l.07.08.11.13.07.1a1.53,1.53,0,0,1,0,1.76c-.47.85-.92,1.72-1.37,2.59L48.8,37.66l-.57,1.12A1.92,1.92,0,0,1,48,39.17Zm3.73,2.14a1.66,1.66,0,0,1-1.27.1,5.92,5.92,0,0,1-.89-.32L49.25,41l-.18-.11-.14-.09,0,0a1.33,1.33,0,0,1-.63-1,1.08,1.08,0,0,1,0-.18V39.5a1.57,1.57,0,0,1,.18-.57c.28-.55.56-1.1.85-1.65l0,0q1.27-2.47,2.57-4.93a.71.71,0,0,1,.11-.17.74.74,0,0,1,.55-.24H53A3.9,3.9,0,0,1,55.06,33a1.35,1.35,0,0,1,.37,1.87c-.3.59-.62,1.18-.93,1.77l-.79,1.47c-.45.82-.9,1.64-1.34,2.46A1.73,1.73,0,0,1,51.69,41.31Zm7.14-3.42a.84.84,0,0,1-.12.23l-.68.93c-.67.92-1.36,1.84-2,2.77a3,3,0,0,1-.76.53,2.69,2.69,0,0,1-.45.16h0a1.78,1.78,0,0,1-.61,0,2.4,2.4,0,0,1-1.4-.79.84.84,0,0,1-.07-1.11l2.49-4.51a3.61,3.61,0,0,0,.31-.58.63.63,0,0,1,.65-.53h0a1.63,1.63,0,0,1,.36.05,3,3,0,0,1,2.21,2.09l.15.41a.31.31,0,0,1,0,.1h0A.68.68,0,0,1,58.83,37.89Zm7,30.38a.83.83,0,0,1-.63,1,.78.78,0,0,1-.85-.31.8.8,0,0,1,0-.93c0-.07.09-.13.13-.19-.15-.25-4-5.46-4.14-5.58h0a25.3,25.3,0,0,1-2.16,1.36l0,.19A1,1,0,0,1,57.5,65a1,1,0,0,1-1.27-.39,1,1,0,0,1,.14-1.29l.16-.15-1.9-3.74H54.4a.64.64,0,0,1-.61-.43.66.66,0,0,1,.22-.74.66.66,0,0,1,.75,0l.17.12a17.52,17.52,0,0,0,3.85-2.91,17.72,17.72,0,0,0,3.08-4.13.56.56,0,0,1,.51-.93l.09-.16A17.71,17.71,0,0,0,64,40.63a2.07,2.07,0,0,0,0-.22l-.16-.08a.41.41,0,0,1-.12-.58.41.41,0,0,1,.59-.07s.08.09.13.13l1.69-.28a.65.65,0,0,0,0-.13.78.78,0,0,1,.47-.66l.06,0a.44.44,0,0,0,0-.23,18.4,18.4,0,0,0-2-5.53,17.41,17.41,0,0,0-1.13-1.79L63.34,31h-.19a.45.45,0,1,1,.06-.9c.08,0,.16.05.25.07s1.74-1.21,2-1.41a16.39,16.39,0,0,0-1.71-2.08,1,1,0,0,1-1.1,0c-.09,0-.13.1-.19.16L60,29.3l-.84.83a.42.42,0,0,1-.18.14c-.09,0-.13-.09-.18-.15a18.24,18.24,0,0,0-5-3.52A15.77,15.77,0,0,0,50,25.37l-1-.18c-.13,0-.15-.05-.13-.18l.12-.74c.1-.58.21-1.16.31-1.74l0-.23A19.09,19.09,0,0,0,45.83,22a20.38,20.38,0,0,0-5.64.87l-.06.16a.42.42,0,1,1-.74-.38,1.34,1.34,0,0,1,.11-.14,1.87,1.87,0,0,0-.07-.22l-1.86-5.7a.93.93,0,0,1-.07-.33.67.67,0,0,1,.12-.06c1.27-.34,2.55-.63,3.85-.87.76-.14,1.52-.26,2.29-.36s1.41-.15,2.12-.16h.22a.6.6,0,0,0,0-.12v-3.2s0-.05,0-.07l-.16-.1a.46.46,0,0,1-.2-.49.47.47,0,0,1,.36-.37.49.49,0,0,1,.52.2l.09.16a32,32,0,0,1,18,5.87.51.51,0,0,1,.53,0,.49.49,0,0,1,.2.49,31.19,31.19,0,0,1,10.92,14.7h.26a1.08,1.08,0,0,1,1.08,1.05,1.08,1.08,0,0,1-1.94.66l-.14-.21-2.54.82-.1.05c.18.65.36,1.29.53,1.94s.29,1.3.41,2,.2,1.3.27,2,.1,1.33.14,2l.13,0a.66.66,0,0,1,0,1.24l-.12,0a1,1,0,0,0,0,.16c0,.42,0,.85-.08,1.27,0,.63-.11,1.27-.21,1.89A26.34,26.34,0,0,1,73.35,50c-.1.35-.21.69-.31,1,0,.07,0,.13-.05.2.17.09,2.4.8,2.65.85l.12-.16A1.09,1.09,0,0,1,77,51.59a1.08,1.08,0,0,1-.37,2.08h-.29a31.34,31.34,0,0,1-10.6,14.4Z"/><path class="cls-2" d="M65.85,28.45l2.67-1.92c.08-.06.18-.11.2-.24s.11-.07.16,0a.76.76,0,0,1,.11.14l.71,1a28.33,28.33,0,0,1,3.09,6.3l.1.27A.57.57,0,0,0,73,34l2.52-.82a1.28,1.28,0,0,1,.1-.7,1.33,1.33,0,0,1,.48-.49,31.34,31.34,0,0,0-2.42-5.29,30.63,30.63,0,0,0-5.8-7.18,24.24,24.24,0,0,0-2.62-2.13.58.58,0,0,1-.46.1c-.17.2-3.89,5.29-4,5.46a.79.79,0,0,1,.13.82l1.71,1.48.14-.05a.85.85,0,0,1,.92.2.83.83,0,0,1,.19.93,1,1,0,0,1-.07.15,25.88,25.88,0,0,1,1.75,2.14Z"/><path class="cls-2" d="M46.38,17.9l.07,0a1,1,0,0,1,.77.77.46.46,0,0,0,.05.1l2.3.19a.64.64,0,0,1,.1-.13.47.47,0,0,1,.81.13.52.52,0,0,1,.06.16l.18,0a26.83,26.83,0,0,1,2.68.65.57.57,0,0,0,.15,0c.27-.85.55-1.7.83-2.56a1.23,1.23,0,0,1-.51-.5,1.27,1.27,0,0,1-.1-.72,27.3,27.3,0,0,0-5.21-1,15.09,15.09,0,0,0-2.2-.07.77.77,0,0,0,0,.15c0,1,0,2.48,0,2.68Z"/><path class="cls-2" d="M50.88,19.44a1.29,1.29,0,0,0-.4-.05.62.62,0,0,1-.43.28c-.14.8-.28,1.6-.41,2.39,0,0,0,0,0,0a23.27,23.27,0,0,1,2.91.71.71.71,0,0,0,.07-.16l.78-2.41a.68.68,0,0,0,0-.14l-.12,0A22.48,22.48,0,0,0,50.88,19.44Z"/><path class="cls-2" d="M49.43,22c.12-.65.23-1.3.34-1.95a1.1,1.1,0,0,0,0-.41.61.61,0,0,1-.28-.38c-.76-.09-1.51-.16-2.27-.18a1.45,1.45,0,0,1-.06.19,1,1,0,0,1-1.27.66,1,1,0,0,1-.72-.95,1,1,0,0,1,.67-1l.24-.07V15.06L46,15h-.16a25,25,0,0,0-3,.29c-.78.12-1.55.26-2.33.41s-1.75.38-2.62.61c-.06,0-.14,0-.19.09.65,2,1.3,4,2,6l.44.23c.49-.12,1-.26,1.5-.36s1-.21,1.54-.28,1-.11,1.55-.16a13.54,13.54,0,0,1,1.56,0c.52,0,1,0,1.56.08l1.55.17A.23.23,0,0,0,49.43,22Z"/><path class="cls-2" d="M62.44,25.32c-.48-.46-1-.9-1.51-1.32l-.1-.05-.17.11a.72.72,0,0,1-1-.82.77.77,0,0,0,0-.15,23.29,23.29,0,0,0-4.54-2.42,6.68,6.68,0,0,0-1.44-.48l-.08.21c-.26.82-.53,1.64-.8,2.46a.75.75,0,0,1,0,.16.1.1,0,0,1-.15.05,1.19,1.19,0,0,0-.35-.15,17.14,17.14,0,0,0-2.55-.59h-.09c-.07.23-.45,2.44-.46,2.68a17,17,0,0,1,5.3,1.7A18.51,18.51,0,0,1,58.92,30s.06,0,.07,0l3.44-3.4v-.06a.88.88,0,0,1,.07-1.08S62.47,25.34,62.44,25.32Z"/><path class="cls-2" d="M46.38,14.81h.16c.85,0,1.7.06,2.55.14q.94.1,1.89.27a25.47,25.47,0,0,1,2.72.62l.15,0L54,15.7a1.07,1.07,0,0,1,1.93.78,1.07,1.07,0,0,1-1.18.92h-.15l-.82,2.54.18.07,1.11.4a23.58,23.58,0,0,1,4.54,2.36.77.77,0,0,0,.25.14.78.78,0,0,1,.84-.13.76.76,0,0,0,.08-.11c1.29-1.77,2.59-3.53,3.88-5.31V17.3a.61.61,0,0,1-.06-.42l0,0-.14-.1a31.52,31.52,0,0,0-15.22-5.57c-.76-.07-1.51-.11-2.27-.13h-.19a.58.58,0,0,1-.37.36v3.16A.34.34,0,0,0,46.38,14.81Z"/><path class="cls-2" d="M62.84,59.84a22.4,22.4,0,0,0,2.51-2.91s.11-.1.09-.18c-.2-.18-1.74-1.31-1.9-1.39l-.15,0a.41.41,0,0,1-.45-.11.4.4,0,0,1-.09-.48.39.39,0,0,1,.38-.27h.15a18,18,0,0,0,.95-1.6,1,1,0,0,1-.27-1,12.54,12.54,0,0,0-1.42-.71.6.6,0,0,1-.57.16c-.23.37-.44.74-.67,1.09s-.45.7-.7,1-.52.68-.79,1-.56.64-.86.94-.61.6-.93.88-.63.54-1,.79-.68.51-1,.74-.71.46-1.08.68a.71.71,0,0,1-.21.73.11.11,0,0,0,0,.06l1.79,3.52a1.09,1.09,0,0,0,.08.15,0,0,0,0,0,0,0l0,0a1.1,1.1,0,0,1,1.21.4l.21-.11c.58-.33,1.14-.67,1.68-1,.12-.09.27-.15.34-.29l.06,0a.56.56,0,0,0,.3-.17A22.43,22.43,0,0,0,62.84,59.84Z"/><path class="cls-2" d="M75.12,56.09a18.41,18.41,0,0,0,1-2.53l-.08-.05a1.08,1.08,0,0,1-.49-1v-.11c-.3-.12-2.48-.81-2.66-.83-.13.36-.26.73-.4,1.09s-.29.73-.45,1.09-.32.72-.49,1.07-.35.69-.53,1-.38.68-.58,1-.41.67-.62,1l-.66,1a.89.89,0,0,1,.07.19.41.41,0,0,1-.13.44.43.43,0,0,1-.47.08.42.42,0,0,1-.27-.38,1.61,1.61,0,0,1,0-.22l-.07-.06-2.6-1.91h-.06l-.55.72c-.19.25-.38.48-.58.72l-.61.69c-.2.23-.42.45-.63.66s-.44.44-.66.64l-.69.62c-.23.2-.47.39-.71.58l-.72.56,0,.06.06.09,4,5.44h.05a1.4,1.4,0,0,1,.5,0,1.58,1.58,0,0,1,.47.23,31,31,0,0,0,9.5-11.81Z"/><path class="cls-2" d="M67.22,38.73a.73.73,0,0,1,.3.22l.2.31L69.33,39l.1-.2a.5.5,0,0,1,.51-.23.47.47,0,0,1,.42.33.49.49,0,0,1-.11.54c-.06.06-.12.1-.18.15.05.35.1.69.13,1s0,.7.06,1.06a1.18,1.18,0,0,1,.66.3,1.24,1.24,0,0,1,.32.66H73a3.75,3.75,0,0,0,.58,0c.12-.32.18-.37.54-.55v-.17c0-.53-.06-1-.11-1.58q-.1-1.14-.3-2.28a28.91,28.91,0,0,0-.88-3.56,1.15,1.15,0,0,0-.06-.17c-.23,0-2.88.91-3,1-.06.43-.23.65-.54.7a.62.62,0,0,1-.69-.35c-.14-.28-.06-.55.25-.85l-.09-.25a24.56,24.56,0,0,0-1.07-2.41,25.14,25.14,0,0,0-1.85-3.06c0-.06-.07-.14-.16-.16-.44.28-1.82,1.29-2,1.43a.56.56,0,0,1-.08.45,19.35,19.35,0,0,1,1.18,1.81,18.86,18.86,0,0,1,1,1.91,19.08,19.08,0,0,1,.73,2,18.83,18.83,0,0,1,.49,2.07Z"/><path class="cls-2" d="M73.54,42.89c-.18,0-2.08,0-2.32,0a1.3,1.3,0,0,1-.31.56,1.17,1.17,0,0,1-.6.29c0,.08,0,.14,0,.2,0,.44-.06.88-.1,1.32-.07.69-.18,1.38-.31,2.06a25.67,25.67,0,0,1-.66,2.58.9.9,0,0,0,0,.19l3.57,1.14a25.28,25.28,0,0,0,1.06-4.32,21.32,21.32,0,0,0,.29-3.46A.77.77,0,0,1,73.54,42.89Z"/><path class="cls-2" d="M69.64,42.69a.56.56,0,0,0,.54.57.56.56,0,0,0,.57-.56.55.55,0,0,0-.55-.58A.56.56,0,0,0,69.64,42.69Z"/><path class="cls-2" d="M76.62,33.24a.3.3,0,0,0,.3-.3.3.3,0,0,0-.59,0A.3.3,0,0,0,76.62,33.24Z"/><path class="cls-2" d="M66.44,48.75a23.83,23.83,0,0,1-1,2.77.92.92,0,0,1,.35,1c.43.22.84.44,1.27.64a.77.77,0,0,1,.73-.25l0,0,.06-.12a23.91,23.91,0,0,0,1.82-5.51c.12-.64.23-1.28.29-1.93,0-.46.08-.92.12-1.38a.41.41,0,0,0,0-.24,1.05,1.05,0,0,1-.87-.83h-1.4a2.71,2.71,0,0,0-.49,0,19.5,19.5,0,0,1-.21,3A20.74,20.74,0,0,1,66.44,48.75Z"/><path class="cls-2" d="M54.82,16.62a.29.29,0,1,0-.28-.31A.29.29,0,0,0,54.82,16.62Z"/><path class="cls-2" d="M76.62,52.89a.3.3,0,1,0,0-.59.3.3,0,0,0-.29.28A.29.29,0,0,0,76.62,52.89Z"/><path class="cls-2" d="M68.74,58.65H69A27.85,27.85,0,0,0,71.69,54a18,18,0,0,0,1-2.55l-.14-.06-3.31-1.06-.14,0A25.52,25.52,0,0,1,68,53l.12.14a.65.65,0,0,1,.06.75.68.68,0,0,1-.68.32h-.17a25.81,25.81,0,0,1-1.51,2.49l2.72,2C68.59,58.7,68.67,58.66,68.74,58.65Z"/><path class="cls-2" d="M69,26.78c0-.07-.08-.15-.17-.19l-.09.05-2.85,2.05-.1.1.64.94c.2.32.4.64.59,1s.37.64.54,1,.35.67.51,1,.32.68.46,1,.29.69.42,1a2.2,2.2,0,0,1,.41.12,1.7,1.7,0,0,1,.31.25l3-1-.07-.23a28.58,28.58,0,0,0-2-4.49A26.7,26.7,0,0,0,69,26.78Z"/><path class="cls-2" d="M62.77,51l.7.35c.23.12.46.25.72.36a.93.93,0,0,1,1-.32c0-.1.08-.17.11-.24A20.13,20.13,0,0,0,67,44.49a19.5,19.5,0,0,0,0-2.86c0-.36-.06-.72-.1-1.08a.49.49,0,0,0,0-.24,1,1,0,0,1-.79-.56L64.4,40a.84.84,0,0,1-.09.19l-.16.18a17.89,17.89,0,0,1-1.57,10.06A.66.66,0,0,1,62.77,51Z"/><path class="cls-2" d="M65.59,56.57a16,16,0,0,0,1.5-2.46,1.8,1.8,0,0,1-.17-.34,1.71,1.71,0,0,1,0-.4c-.41-.21-.82-.43-1.24-.63a1.12,1.12,0,0,1-.51.35,1.07,1.07,0,0,1-.59,0,17.72,17.72,0,0,0-1,1.61c.11.19.11.19.11.5Z"/><path class="cls-2" d="M69.57,39.48a1.59,1.59,0,0,1-.24-.27l-1.59.27a3.58,3.58,0,0,1-.11.35,1.21,1.21,0,0,1-.2.26c-.08.07-.19.12-.3.2a22.59,22.59,0,0,1,.17,2.36h1.26a3.7,3.7,0,0,0,.58,0,4.49,4.49,0,0,1,.17-.44.73.73,0,0,1,.31-.34l.4-.19a7.64,7.64,0,0,0-.19-2.06A.9.9,0,0,1,69.57,39.48Z"/><polygon class="cls-2" points="23.32 50.07 23.33 50.06 23.33 50.06 23.33 50.06 23.32 50.07"/><path class="cls-2" d="M16,32.7l.06,0Z"/><path class="cls-2" d="M16.14,32.94h0a.33.33,0,0,0,0-.15.24.24,0,0,1,0,.15Z"/><path class="cls-2" d="M23.21,49.66a22.71,22.71,0,0,1-.77-3.36,20.18,20.18,0,0,1-.22-2c0-.4,0-.81,0-1.22a.43.43,0,0,0,0-.12l-.06,0H19l0,0s-.06.12-.1.18a.66.66,0,0,1-1.18-.23.64.64,0,0,1,.35-.73l.17-.07a.44.44,0,0,0,0-.1,23.79,23.79,0,0,1,.18-2.39c.08-.58.16-1.16.26-1.74a27.43,27.43,0,0,1,.7-3,.29.29,0,0,0,0-.16.58.58,0,0,1,.05-.29l0-.13a26.34,26.34,0,0,0-2.63-.9c-.11.12-.21.24-.32.35a.81.81,0,0,1-.45.2,3.62,3.62,0,0,1-.47,0,.75.75,0,0,0-.09.29,32.78,32.78,0,0,0-.92,5.11c-.09.9-.14,1.8-.16,2.7,0,.71,0,1.42,0,2.14s.08,1.39.16,2.08.18,1.45.31,2.17q.28,1.61.72,3.18a.87.87,0,0,0,.07.17,1.13,1.13,0,0,1,.49.09,1.46,1.46,0,0,1,.37.33l6.72-2.11h0v0Z"/><path class="cls-2" d="M15.85,33.21a.28.28,0,0,0,.29-.24h0v0h0a.24.24,0,0,0,0-.15l0,0,0,0-.06,0a.28.28,0,0,0-.13,0h-.13l-.08.05a.31.31,0,0,0-.08.15v0a.27.27,0,0,0,.07.2A.25.25,0,0,0,15.85,33.21Z"/><path class="cls-2" d="M15.83,52.41a.21.21,0,0,0-.19.2.2.2,0,0,0,.18.18.18.18,0,0,0,.2-.18A.19.19,0,0,0,15.83,52.41Z"/><path class="cls-2" d="M27,56.53l.57-.41.57-.41.6-.43a4.42,4.42,0,0,1,.57-.39l.05,0a.79.79,0,0,1,.12.15,22,22,0,0,0,1.78,2.08.67.67,0,0,0,.2.17l.5-.5c.16-.16.33-.32.48-.49a5.75,5.75,0,0,0,.49-.5A.81.81,0,0,1,33,55a18.89,18.89,0,0,1-2.86-4.18A18.41,18.41,0,0,1,28.5,46a.75.75,0,0,1-.47-.27c-.84.11-5.09.8-5.31.87a.83.83,0,0,0,0,.27,22.59,22.59,0,0,0,1,3.63A22.85,22.85,0,0,0,25,53.36a23.82,23.82,0,0,0,1.85,3C26.86,56.43,26.89,56.51,27,56.53Z"/><path class="cls-2" d="M31.24,57.44,30.78,57c-.15-.16-.31-.33-.45-.5-.35-.42-.69-.84-1-1.27h-.06l-2.07,1.5-.08,0,.06.11A23.64,23.64,0,0,0,29.06,59a.32.32,0,0,0,.07.06,1.32,1.32,0,0,1,.3-.06,2.7,2.7,0,0,1,.28,0l1.55-1.56a.13.13,0,0,1,0,0Z"/><path class="cls-2" d="M36.72,61.43a21.08,21.08,0,0,1-5.1-3.62l-.19-.17L31,58l-.4.4-.38.38a4.86,4.86,0,0,0-.38.41l.07.16a.54.54,0,0,1-.82.61.51.51,0,0,1-.21-.57,1.09,1.09,0,0,1,0-.17c-.18-.19-.36-.37-.53-.57s-.36-.39-.53-.6-.34-.39-.5-.59l-.49-.63c-.21.11-2.24,1.58-2.4,1.74a1,1,0,0,1,.1.67,1.23,1.23,0,0,1-.34.62l.16.2A31.29,31.29,0,0,0,29.63,65c.06,0,.1.1.18.09.24-.28,1.82-2.44,1.91-2.61a1.11,1.11,0,0,1-.09-.19.5.5,0,0,1,.14-.55.49.49,0,0,1,.57-.1.52.52,0,0,1,.34.47c0,.08,0,.15,0,.24a26,26,0,0,0,3.89,2.1c.26-.9.53-1.81.8-2.73Z"/><path class="cls-2" d="M16.89,33.15l.23.08,1.8.58c.2.07.42.12.64.18a.81.81,0,0,0,.15-.27c.05-.15.11-.3.16-.44a27.73,27.73,0,0,1,2.89-5.76l.11-.19-.19-.23a1.09,1.09,0,1,1,2-.29l-.07.22c.13.13,2,1.43,2.23,1.58l.44-.57.46-.57.48-.56.49-.54.51-.52.54-.52.55-.49.56-.48.57-.45c.19-.15.39-.28.59-.46l-4.55-6.27-.23.17a31.7,31.7,0,0,0-8.28,9.1,30.78,30.78,0,0,0-2.57,5.33.31.31,0,0,0-.05.23A1.07,1.07,0,0,1,16.89,33.15Z"/><path class="cls-2" d="M29.7,34.49c-.25-.15-1.93-1-2.12-1-.06.14-.13.28-.2.42s-.13.28-.19.42L27,34.7c-.06.15-.12.3-.17.44s-.12.29-.17.44l-.16.45c-.05.14-.09.29-.14.44s-.09.29-.13.43-.09.3-.13.45l-.12.46c0,.15-.07.3-.1.46s-.07.3-.1.46-.06.3-.08.46-.06.29-.08.44l-.06.46-.06.47c0,.16,0,.31,0,.47s0,.31,0,.47l0,.44c0,.16,0,.32,0,.47a2.58,2.58,0,0,1,0,.48H22.91a3.81,3.81,0,0,0-.48,0,7,7,0,0,0,0,1.75,8.57,8.57,0,0,0,.23,1.69c.23,0,5-.79,5.27-.86a.59.59,0,0,1,.37-.53c0-.13,0-.23,0-.33,0-.27-.05-.54-.07-.82a18.23,18.23,0,0,1,0-2.56,17.89,17.89,0,0,1,.26-1.93,18.41,18.41,0,0,1,1.28-4.1c0-.05,0-.1.05-.16A.64.64,0,0,1,29.7,34.49Z"/><path class="cls-2" d="M19.58,34.84c-.25.82-.46,1.66-.63,2.51a24.91,24.91,0,0,0-.39,2.57c-.07.66-.12,1.31-.14,2,0,.06,0,.12,0,.19a.63.63,0,0,1,.36.22,3.35,3.35,0,0,1,.2.37c.24,0,3,0,3.17,0a26.71,26.71,0,0,1,.28-3.35A24.12,24.12,0,0,1,23.16,36a.84.84,0,0,1-.4-.74l-.26-.09c-.87-.27-1.72-.6-2.61-.81l-.14,0A4.43,4.43,0,0,0,19.58,34.84Z"/><path class="cls-2" d="M25.14,42.66s0,0,0-.06a1.48,1.48,0,0,0,0-.21,23.38,23.38,0,0,1,.21-2.51,21.85,21.85,0,0,1,.69-3.19,23.58,23.58,0,0,1,1.22-3.15.34.34,0,0,0,.08-.21c-.25-.15-1.6-.82-1.78-.88-.35.35-.39.36-1,.37a14.29,14.29,0,0,0-.81,2,.67.67,0,0,1,.28.76.67.67,0,0,1-.68.47,21.86,21.86,0,0,0-1,6.58C22.61,42.69,24.92,42.69,25.14,42.66Z"/><path class="cls-2" d="M34.66,68.3,33.94,68l-.69-.37c-.23-.12-.47-.25-.7-.39l-.69-.41-.68-.42-.67-.45c-.22-.14-.42-.31-.67-.45l-2,2.71a1.86,1.86,0,0,1,.08.26,1.17,1.17,0,0,1,0,.27,31.42,31.42,0,0,0,5.75,3.21l.48.2c.52-1.55,1-3,1.18-3.5Z"/><path class="cls-2" d="M27.13,28.54a1,1,0,0,0-.14.21l.08.07,1.8,1.26s0,0,0,0h0L29,30a.5.5,0,0,1,.57.1.5.5,0,0,1,.1.57.49.49,0,0,1-.5.29L29,31a21,21,0,0,0-1.33,2.26l.55.28.53.26.55.27a2.93,2.93,0,0,0,.51.24,1.72,1.72,0,0,1,.26-.1,1.1,1.1,0,0,1,.26,0A18,18,0,0,1,37.58,27c.05-.18.1-.31.16-.48a.89.89,0,0,1-.05-.1l-2-4.05s0,0,0,0h0c-.42,0-.47,0-.87-.28l-.25.13a23.22,23.22,0,0,0-7.35,6.39Z"/><path class="cls-2" d="M24.42,27.24a1.21,1.21,0,0,1-1.37.24l-.13.18a28.15,28.15,0,0,0-2.82,5.62.43.43,0,0,0-.06.18,1.32,1.32,0,0,1-.12.43c0,.06,0,.11-.06.18.19.08.37.17.55.23l2.27.74.17,0c.32-.32.32-.28.71-.33.27-.68.54-1.35.83-2l-.12-.1a.86.86,0,0,1-.18-1,.85.85,0,0,1,.93-.45h.16c.44-.81.94-1.57,1.45-2.32v0C26.44,28.63,24.58,27.32,24.42,27.24Z"/><path class="cls-2" d="M51.06,70.08a27.3,27.3,0,0,0,3.68-.86.28.28,0,0,0,0-.09c-.66-2-1.31-4-2-6a.66.66,0,0,1-.48-.22l-.15,0-.58.15c-.32,1.47-1,4.34-1.61,7.18Z"/><path class="cls-2" d="M36.49,64.68a25.55,25.55,0,0,1-3.76-2,.58.58,0,0,0-.23-.13.64.64,0,0,1-.6.1L30,65.27a31.61,31.61,0,0,0,3.83,2.37c.48.25,1.07.53,1.6.77l.23-.76C35.91,66.69,36.2,65.69,36.49,64.68Z"/><path class="cls-2" d="M26.83,29c-.27.37-.52.75-.77,1.14a5.94,5.94,0,0,0-.67,1.22,1,1,0,0,1,.28.42,1.2,1.2,0,0,1,0,.5l.07,0,1.63.81.11,0a23.88,23.88,0,0,1,1.35-2.3.66.66,0,0,1-.09-.52C28.57,30.13,27,29,26.83,29Z"/><path class="cls-3" d="M38.77,69.5l-.25-.07-.06.21.24.06Z"/><path class="cls-2" d="M48.87,53.33a5.05,5.05,0,0,1-2.29.52c-1.25.09-1.25.08-1.6,1.24q-1.21,4-2.42,8.08c0,.07,0,.14-.07.21-.26.89-.53,1.79-.8,2.69l-.06.2L40.54,69.9l-.06.21c-.37,1.21-.73,2.41-1.09,3.62l-.06.21c-.22.72-.44,1.45-.65,2.17q-1.65,5.51-3.31,11a.78.78,0,0,1-.24.43q1.51-5.78,3-11.54c.2-.73.39-1.46.58-2.19l.06-.21,1-3.64.06-.21,1-3.66.06-.2c.24-.9.47-1.81.71-2.71a1.17,1.17,0,0,0,0-.2c.46-1.73.92-3.45,1.37-5.18l-.11,0-1.78,5.1c0,.07-.05.14-.07.2l-.93,2.65a1.59,1.59,0,0,1-.07.2c-.41,1.2-.83,2.4-1.25,3.6l-.25-.07,1-3.67.06-.21c.24-.9.49-1.8.73-2.7a1.17,1.17,0,0,0,.05-.2q1.29-4.74,2.56-9.47a1.27,1.27,0,0,0-.06-.77c-.28-.65-.62-1.27-.9-1.95C44,52.15,46.11,53.45,48.87,53.33Z"/><path class="cls-2" d="M38.06,71.2l.11,0,.53-1.52-.24-.06c-.09.34-.18.69-.28,1C38.13,70.84,38.1,71,38.06,71.2Z"/><path class="cls-2" d="M46.74,39.54a3.11,3.11,0,0,1-.87-.24,3.11,3.11,0,0,0,.87.24A1.4,1.4,0,0,0,48,39.17,1.4,1.4,0,0,1,46.74,39.54Z"/><path class="cls-2" d="M47.22,30.57a1.28,1.28,0,0,1,.07-.21,1.28,1.28,0,0,0-.07.21,23.22,23.22,0,0,1-.58,2.36c-.18.43-.37.87-.56,1.3.19-.43.38-.87.56-1.3A23.22,23.22,0,0,0,47.22,30.57Z"/><path class="cls-2" d="M45,38.61a1.34,1.34,0,0,1-.22-1.56c.45-.94.91-1.87,1.33-2.82-.42,1-.88,1.88-1.33,2.82A1.34,1.34,0,0,0,45,38.61a2.47,2.47,0,0,0,.68.58A2.47,2.47,0,0,1,45,38.61Z"/><path class="cls-2" d="M50,35.4,48.8,37.66Z"/><path class="cls-2" d="M45.87,39.3l-.22-.11Z"/><path class="cls-2" d="M51.2,31l-.11-.13L51,30.74l.07.08Z"/><path class="cls-2" d="M45.56,34.74a.49.49,0,0,1,0,.11A.49.49,0,0,0,45.56,34.74Z"/><path class="cls-2" d="M42.57,36.12a5.34,5.34,0,0,0,1.07-.34A5.34,5.34,0,0,1,42.57,36.12Z"/><path class="cls-2" d="M43.39,37.44l-.27-.08Z"/><path class="cls-2" d="M44.06,37.45a.78.78,0,0,1-.21,0A.78.78,0,0,0,44.06,37.45Z"/><path class="cls-2" d="M44.24,37.34a.54.54,0,0,1-.18.11A.54.54,0,0,0,44.24,37.34Z"/><path class="cls-2" d="M44.1,35.55c.12-.07.24-.14.35-.22C44.34,35.41,44.22,35.48,44.1,35.55Z"/><path class="cls-2" d="M44.24,37.34a.89.89,0,0,0,.25-.29A.89.89,0,0,1,44.24,37.34Z"/><path class="cls-2" d="M41.73,36.2a4.6,4.6,0,0,0,.84-.08,4.6,4.6,0,0,1-.84.08,2.43,2.43,0,0,0,1.39,1.16A2.43,2.43,0,0,1,41.73,36.2Z"/><path class="cls-2" d="M45.58,34.63v0Z"/><path class="cls-2" d="M43.53,37.47l-.14,0,.14,0a1.17,1.17,0,0,0,.32,0A1.17,1.17,0,0,1,43.53,37.47Z"/><path class="cls-2" d="M44.54,35.27l.12-.09Z"/><path class="cls-2" d="M52.75,31.9h0Z"/><path class="cls-2" d="M52,32.15a.71.71,0,0,0-.11.17q-1.29,2.46-2.57,4.93,1.27-2.47,2.57-4.93A.71.71,0,0,1,52,32.15Z"/><path class="cls-2" d="M49.3,37.28c-.29.55-.57,1.1-.85,1.65a1.57,1.57,0,0,0-.18.57,1.57,1.57,0,0,1,.18-.57C48.73,38.38,49,37.83,49.3,37.28Z"/><path class="cls-2" d="M54.5,36.65l-.79,1.47Z"/><path class="cls-2" d="M48.27,39.74a1.33,1.33,0,0,0,.63,1l0,0,0,0A1.33,1.33,0,0,1,48.27,39.74Z"/><path class="cls-2" d="M50.42,41.41a5.92,5.92,0,0,1-.89-.32,5.92,5.92,0,0,0,.89.32,1.66,1.66,0,0,0,1.27-.1A1.66,1.66,0,0,1,50.42,41.41Z"/><path class="cls-2" d="M52.83,31.91h0Z"/><path class="cls-2" d="M48.27,39.56a1.08,1.08,0,0,0,0,.18A1.08,1.08,0,0,1,48.27,39.56Z"/><path class="cls-2" d="M41.27,29.73h0Z"/><path class="cls-2" d="M41.93,30h-.29a3.46,3.46,0,0,0,.56,0h0Z"/><path class="cls-2" d="M42.06,29l.15-.12Z"/><path class="cls-2" d="M44.59,29.81Z"/><path class="cls-2" d="M42.26,28.83l.1-.08Z"/><path class="cls-2" d="M46.89,30.62h0Z"/><path class="cls-2" d="M41.19,30a3.31,3.31,0,0,0,.44,0h0A3.17,3.17,0,0,1,41.19,30Z"/><path class="cls-2" d="M46.91,30.62h0c0-.11,0-.22,0-.32,0,.1,0,.21,0,.32Z"/><path class="cls-2" d="M42.22,30h0l.18,0h0Z"/><path class="cls-2" d="M42.44,28.68Z"/><path class="cls-2" d="M41.1,29.91,41,30l.14,0L41,30Z"/><path class="cls-2" d="M46.83,30.62h0s0,0,.07,0h-.06Z"/><path class="cls-2" d="M54.13,42.53a1.78,1.78,0,0,0,.61,0A1.78,1.78,0,0,1,54.13,42.53Z"/><path class="cls-2" d="M58.88,37.66a.31.31,0,0,0,0-.1l-.15-.41.15.41A.31.31,0,0,1,58.88,37.66Z"/><path class="cls-2" d="M55.23,42.35a2.69,2.69,0,0,1-.45.16A2.69,2.69,0,0,0,55.23,42.35Z"/><path class="cls-2" d="M58.88,37.66a.68.68,0,0,1-.05.23A.68.68,0,0,0,58.88,37.66Z"/><path class="cls-2" d="M52.73,41.74a.84.84,0,0,1-.07-1.11l2.49-4.51a3.61,3.61,0,0,0,.31-.58.63.63,0,0,1,.65-.53.63.63,0,0,0-.65.53,3.61,3.61,0,0,1-.31.58l-2.49,4.51a.84.84,0,0,0,.07,1.11,2.4,2.4,0,0,0,1.4.79A2.4,2.4,0,0,1,52.73,41.74Z"/><path class="cls-2" d="M36,67,36,67h0Z"/><path class="cls-4" d="M36,67,36,67h0Z"/><path class="cls-2" d="M42.21,28.86l0,0Z"/><path class="cls-2" d="M46.77,30.54l0,0Z"/><path class="cls-2" d="M45.63,28.12a2.13,2.13,0,0,1,1.3,2.18,2.13,2.13,0,0,0-1.3-2.18,2.51,2.51,0,0,0-3.13.49l-.06.07.06-.07A2.51,2.51,0,0,1,45.63,28.12Z"/><path class="cls-2" d="M46.9,30.62h0Z"/><path class="cls-2" d="M42.44,28.68l-.08.07Z"/><path class="cls-2" d="M42,29.07l.11-.09-.11.09c-.23.21-.44.43-.67.66C41.51,29.5,41.72,29.28,42,29.07Z"/><path class="cls-2" d="M46.82,30.61Z"/><path class="cls-2" d="M46.72,30.47l0,0Z"/><path class="cls-2" d="M46.89,30.62Z"/><path class="cls-2" d="M46.67,30.41l0-.05Z"/><path class="cls-2" d="M46.57,30.3l0,.05Z"/><path class="cls-2" d="M44.6,29.81a4.78,4.78,0,0,1,1.27.1,1.52,1.52,0,0,1,.69.38A2.61,2.61,0,0,0,44.6,29.81Z"/><path class="cls-2" d="M42.39,30c.46-.06.89-.08,1.33-.13a.21.21,0,0,1,.11,0,6.34,6.34,0,0,0,.76,0,11.27,11.27,0,0,1-1.33-.16A1.72,1.72,0,0,1,42.39,30Z"/><path class="cls-2" d="M41.1,29.91l.17-.18Z"/><polygon class="cls-2" points="46.83 30.62 46.82 30.61 46.82 30.61 46.83 30.62"/><path class="cls-2" d="M41.64,30Z"/><path class="cls-2" d="M41.62,30h0Z"/><path class="cls-2" d="M42.2,30h0Z"/><path class="cls-2" d="M42.17,30h0Z"/><path class="cls-2" d="M46.81,30.6l0-.06,0,0,0,0,0,0,0,0,0-.05h0l0-.05h0a1.52,1.52,0,0,0-.69-.38,1.81,1.81,0,0,1,1,.7Z"/><path class="cls-2" d="M46.75,30.5l0,0Z"/><path class="cls-2" d="M46.81,30.6l0-.06Z"/><path class="cls-2" d="M46.63,30.36h0Z"/><path class="cls-2" d="M46.69,30.43l0,0Z"/><path class="cls-2" d="M46.56,30.29h0Z"/><path class="cls-2" d="M44.45,35.33l.09-.06Z"/><path class="cls-2" d="M45.52,34.85l0,.1-1,2,1-2Z"/><path class="cls-2" d="M43.64,35.78l.46-.23Z"/><path class="cls-2" d="M45.57,34.68v0Z"/><path class="cls-2" d="M45.61,34.55l0,.08,0-.08-.1-.08a7.11,7.11,0,0,1-.85.71,7.11,7.11,0,0,0,.85-.71Z"/><path class="cls-2" d="M45.52,34.85a.49.49,0,0,0,0-.11v-.11l0-.08-.1-.08a7.11,7.11,0,0,1-.85.71l-.12.09-.09.06c-.11.08-.23.15-.35.22l-.46.23a5.34,5.34,0,0,1-1.07.34,4.6,4.6,0,0,1-.84.08,2.43,2.43,0,0,0,1.39,1.16l.27.08.14,0a1.17,1.17,0,0,0,.32,0,.78.78,0,0,0,.21,0,.54.54,0,0,0,.18-.11.89.89,0,0,0,.25-.29s0,0,0-.08l1-2Z"/><path class="cls-2" d="M48.23,38.78a1.92,1.92,0,0,1-.27.39,1.92,1.92,0,0,0,.27-.39l.57-1.12Z"/><path class="cls-2" d="M51.32,32.81c-.47.85-.92,1.72-1.37,2.59.45-.87.9-1.74,1.37-2.59a1.53,1.53,0,0,0,0-1.76A1.53,1.53,0,0,1,51.32,32.81Z"/><path class="cls-2" d="M47.58,30a2.68,2.68,0,0,1,3.27.57,2,2,0,0,1,.17.19,2,2,0,0,0-.17-.19A2.68,2.68,0,0,0,47.58,30a.82.82,0,0,0-.29.38A.82.82,0,0,1,47.58,30Z"/><path class="cls-2" d="M51.2,31l.07.1Z"/><path class="cls-2" d="M54.78,42.51h0Z"/><path class="cls-2" d="M58.72,37.15a3,3,0,0,0-2.21-2.09,1.63,1.63,0,0,0-.36-.05,1.63,1.63,0,0,1,.36.05A3,3,0,0,1,58.72,37.15Z"/><path class="cls-2" d="M58,39.05l.68-.93a.84.84,0,0,0,.12-.23.84.84,0,0,1-.12.23Z"/><path class="cls-2" d="M58.88,37.66Z"/><path class="cls-2" d="M55.23,42.35a3,3,0,0,0,.76-.53c.68-.93,1.37-1.85,2-2.77-.67.92-1.36,1.84-2,2.77A3,3,0,0,1,55.23,42.35Z"/><path class="cls-2" d="M56.11,35h0Z"/><path class="cls-2" d="M52.55,31.91a.74.74,0,0,0-.55.24A.74.74,0,0,1,52.55,31.91Z"/><path class="cls-2" d="M55.43,34.88c-.3.59-.62,1.18-.93,1.77.31-.59.63-1.18.93-1.77A1.35,1.35,0,0,0,55.06,33,3.9,3.9,0,0,0,53,31.92,3.9,3.9,0,0,1,55.06,33,1.35,1.35,0,0,1,55.43,34.88Z"/><path class="cls-2" d="M52.37,40.58a1.73,1.73,0,0,1-.68.73,1.73,1.73,0,0,0,.68-.73c.44-.82.89-1.64,1.34-2.46C53.26,38.94,52.81,39.76,52.37,40.58Z"/><path class="cls-2" d="M49.3,37.28l0,0Z"/><path class="cls-2" d="M49.25,41l-.18-.11Z"/><path class="cls-2" d="M49.07,40.84l-.14-.09Z"/><path class="cls-3" d="M42.22,30l.16,0Z"/><path class="cls-3" d="M46.89,30.62h0Z"/><path class="cls-3" d="M41.93,30l.24,0Z"/><path class="cls-3" d="M41.19,30h0Z"/><path class="cls-3" d="M41,30l.14,0h0a3.17,3.17,0,0,0,.43,0A3.19,3.19,0,0,0,41,30Z"/><path class="cls-3" d="M41.67,30h0Z"/><path class="cls-3" d="M41.78,30h0Z"/><text class="cls-5" transform="translate(83.4 62.27) scale(0.88 1)">REVO TECH</text><polygon class="cls-2" points="84.29 66.14 102.54 65.96 120.79 65.85 157.29 65.77 193.8 65.85 212.05 65.96 230.3 66.14 212.05 66.32 193.8 66.43 157.29 66.52 120.79 66.43 102.54 66.32 84.29 66.14"/></svg>